<?xml version="1.0" encoding="utf-8"?>
<!-- Generator: Adobe Illustrator 18.0.0, SVG Export Plug-In . SVG Version: 6.00 Build 0)  -->
<!DOCTYPE svg PUBLIC "-//W3C//DTD SVG 1.1//EN" "http://www.w3.org/Graphics/SVG/1.1/DTD/svg11.dtd">
<svg version="1.1" id="Layer_1" xmlns="http://www.w3.org/2000/svg" xmlns:xlink="http://www.w3.org/1999/xlink" x="0px" y="0px"
	 viewBox="0 0 256 256" enable-background="new 0 0 256 256" xml:space="preserve">
<circle fill="#2E3E51" cx="125" cy="125" r="105.5"/>
<g>
	<path fill="#379F83" d="M122.5,110.4c-0.9,0-1.8-0.3-1.8-0.3s0.5,1.4,4.3,1.4c3.8,0,4.3-1.4,4.3-1.4s-0.9,0.3-1.8,0.3H122.5z"/>
	<path fill="#379F83" d="M202.1,126.9c0-2.8-2.1-6.5-5.4-9.4c2.7,0.4,5,1.4,6.8,2.7c-0.7-1.9-2.2-3.5-4.1-4.6c-0.7-2-2.1-3.9-4-5.5
		c2.1,0.4,3.9,1.2,5.3,2.1c-1.1-2.7-4.5-4.8-8.8-5.2c0-0.1-0.1-0.2-0.1-0.2c3.1,0,6.1,0.7,8.6,1.8c-2.4-3.3-6.9-5.5-11.9-5.4
		l-0.1-0.1c2.2-1,4.6-1.5,7-1.4c-2.9-1.3-6.3-1.6-9.2-0.9c-0.6-0.8-1.3-1.4-2.2-1.8c4.8-0.1,9.5,0.8,12.9,2.5
		c-2.7-3.4-8.6-5.5-14.6-5.5c-1.2-1.2-3-2.2-5.1-2.8c-1-0.8-2.4-1.6-4.1-2.3c2.7-0.4,5.2-0.4,7.3,0.1c-2.5-1.8-7.2-2.3-11.6-1.4
		c-1.5-0.4-3.1-0.6-4.7-0.8c-3-0.3-5.8-0.2-8.1,0.2c-4.1-1-8.2-1.5-12.5-1.9c7.2-1.6,16.4-5,9.6-11.8c-14.8-14.8-3.7-29-3.7-29
		s-14.9,10.5-2.9,28.4c5.5,8.1-17.7,6.1-17.7,6.1c-1.1-0.3-2.2-0.5-3.4-0.5c-0.1-0.2-0.3-0.4-0.6-0.4c-0.3,0-0.5,0.1-0.6,0.4
		c-1.2,0-2.4,0.2-3.5,0.5c-0.8,0.1-23.1,1.8-17.7-6.1c12.1-17.8-2.9-28.4-2.9-28.4s11.1,14.2-3.7,29c-6.7,6.7,2.5,10.2,9.7,11.8
		c-4.3,0.4-8.4,0.9-12.5,1.9c-2.2-0.4-5-0.5-8.1-0.2c-1.6,0.2-3.2,0.5-4.7,0.8c-4.5-0.9-9.1-0.4-11.6,1.4c2.1-0.4,4.7-0.4,7.3-0.1
		c-1.6,0.7-3,1.5-4.1,2.3c-2.1,0.7-3.9,1.6-5.1,2.8c-6,0-11.9,2.1-14.6,5.5c3.4-1.7,8.1-2.6,12.9-2.5c-0.9,0.4-1.7,1-2.2,1.8
		c-2.9-0.7-6.3-0.4-9.2,0.9c2.4,0,4.9,0.4,7,1.4l-0.1,0.1c-5-0.1-9.5,2.1-11.9,5.4c2.4-1.1,5.4-1.7,8.6-1.8c0,0.1-0.1,0.2-0.1,0.2
		c-4.3,0.3-7.7,2.5-8.8,5.2c1.4-0.9,3.2-1.7,5.3-2.1c-1.8,1.6-3.2,3.5-4,5.5c-2,1.1-3.4,2.7-4.1,4.6c1.8-1.3,4.1-2.3,6.8-2.7
		c-3.3,2.9-5.5,6.6-5.4,9.4c1.1-2.1,2.9-4.3,5.2-6.3c-2.2,4.4-3.1,9-2.6,12.6c1-3.1,2.6-6.4,4.6-9.6c-1.5,4.7-1.2,9.7,0.7,12.1
		c-0.6-3.4,0-8.3,1.9-12.9c0,0,0.1,0,0.1-0.1c-1,3.7-0.8,7.9,0.6,11.6c-0.1,0.5-0.3,1-0.4,1.6h0c-0.2,0.8-0.5,1.6-0.8,2.5
		c-4.4,13,9.7,31,14,35.2c-1,9.3,11.6,11.6,17.5,7.2c5.7,1.3,10.6-2.6,5.4-7.8c1.5-4.4-6-6.2-9-5.2c-2-0.9-7.8-19.7-4.3-31.9l0,0
		c0.6-2.2,1.6-4.2,2.9-5.8c2.4-3,7.4-3.8,9.5-0.6c0.4,0.6,0.8,1.3,1.2,1.9l0.2,0.3c0.1,1.4,0.6,2.8,1.5,4.2l0,0
		c0.5,0.9,1.2,1.8,2,2.7c0.1,0.2,0.2,0.5,0.3,0.7l0.1,0.1c4.8,11.9,3.4,21.4,1.8,29.6c-1.9,9.7-4.4,18.5,4.6,26
		c-1.9,0.5-18.5,2.4-14.5,7.3c2,2.5,9.9,1.2,12,0.4c5.3-2,3.8-2.5,10.7-3.7c2.3-0.7,3.5-2.8,1.3-4.5c-12.2-9.5-0.9-23,10.8-23
		c11.6,0,23,13.5,10.8,23c-2.3,1.8-1,3.9,1.3,4.5c6.8,1.2,5.4,1.6,10.7,3.7c2.1,0.8,10,2.1,12-0.4c4-4.9-12.6-6.8-14.5-7.3
		c9-7.6,6.5-16.3,4.6-26c-1.6-8.2-3-17.9,1.9-29.9c0.1-0.1,0.1-0.2,0.2-0.4c0.1-0.2,0.2-0.5,0.4-0.9c0.6-0.7,1-1.4,1.5-2l0,0
		c0.8-1.3,1.3-2.5,1.5-3.7l0.4-0.7c0.4-0.7,0.8-1.4,1.3-2.1c2-3.1,7.1-2.3,9.5,0.6c1.3,1.6,2.3,3.6,2.9,5.8l0,0
		c3.5,12.3-2.3,31-4.3,31.9c-3-1-10.5,0.8-9,5.2c-5.3,5.1-0.4,9.1,5.4,7.8c5.9,4.4,18.5,2.1,17.5-7.2c4.3-4.2,18.4-22.2,14-35.2
		c-0.3-0.9-0.6-1.7-0.8-2.5l0,0c-0.2-0.6-0.3-1.1-0.4-1.6c1.3-3.7,1.6-7.8,0.6-11.6c0.1,0,0.1,0,0.1,0.1c1.9,4.5,2.5,9.5,1.9,12.9
		c1.9-2.4,2.2-7.4,0.7-12.1c2.1,3.2,3.6,6.5,4.6,9.6c0.5-3.6-0.5-8.2-2.6-12.6C199.2,122.6,201.1,124.8,202.1,126.9z M54.9,114.3
		c-0.9,0.1-1.8,0.3-2.6,0.6c0.9-0.9,1.9-1.7,3.1-2.4C55.2,113.1,55,113.7,54.9,114.3z M76.9,94.4c-2.1,0.3-4.1,1-5.6,1.9l-0.1,0
		c-1-0.2-2.1-0.3-3.1-0.3C70.5,95,73.6,94.4,76.9,94.4z M60.1,154.3c-2.1-5.2-3.2-10.7-1.6-15.4c0.3-0.8,0.5-1.6,0.7-2.3
		c1.2,2.4,2.9,4.6,4.9,6.2c-1.1-2-1.9-4.3-2.3-6.8l0,0c-0.6-3.8-0.4-7.9,0.8-11.8c0.1,0.4,0.4,0.8,0.6,1.1
		c-0.8,3.4-0.4,7.2,1.1,10.7l0,0c0.9,2.1,2.2,4.1,3.9,5.8c-0.7-1.8-1.1-3.8-1.2-5.8l0,0c-0.2-2.8,0.2-5.7,1.3-8.4
		c-0.2,2.8,0.4,5.7,1.7,8.4v0c0.6,1.3,1.5,2.6,2.4,3.8c-0.3-1.2-0.6-2.5-0.6-3.8c-0.1-2.6,0.3-5.2,1.3-7.7c0,0.2,0,0.4,0,0.5
		c-0.2,2.5,0.1,5,0.7,7.1c0,0,0,0,0,0l0,0c0.8,2.6,2,4.7,3.6,5.7c-0.8-1.5-1.5-3.5-1.9-5.7h0c-0.4-2.2-0.5-4.6-0.3-7l0.1,0.1
		c0.1,2.6,0.6,5,1.4,6.9l0,0c0.5,1.3,1.2,2.3,1.9,3.2c-0.6,3.9-0.6,8.2-0.1,12.3c-1.4,1.9-4.4,3.7-8.3,4.5
		C65.5,156.8,62.1,155.6,60.1,154.3z M70.5,157.2c2.2-0.4,4.3-1.2,6-2.2l0.1,0.5c0.5,4.8,1.6,9.3,3.1,12.9c-0.9,0.6-2.1,1-3.3,1.3
		c-2.3-2.5-5.6-7.1-8.2-12.1C68.8,157.5,69.6,157.4,70.5,157.2z M82.6,167c0.9,1.5,1.7,2.4,2.6,2.4c1.2-0.5,3-0.5,4.6,0
		c2.3,0.8,3.4,2.4,2.5,3.6c-0.1,0.1-0.2,0.2-0.3,0.3c2.5,1.8,3.4,4.2,1.9,5.5c-1.1,1-3.3,1.1-5.6,0.4c-2.5,2.2-6.7,3.1-10.1,1.9
		c-2.8-0.9-6.4-3.3-5.5-8c-0.4-0.3-1-0.9-1.6-1.6c1.2,0.3,2.6,0,4.3-0.2C78.6,170.7,81.9,169.1,82.6,167z M79.2,136
		c0,0.1,0,0.1,0.1,0.2c-0.2,0.9-0.4,1.9-0.6,2.9c-0.3-0.9-0.4-2-0.6-3l0,0c-0.2-1.9-0.3-3.9-0.2-6c0.6,0.2,1.1,0.4,1.7,0.5
		C79,132.5,78.8,134.4,79.2,136L79.2,136z M82.6,92.5c-0.2,0-0.4-0.1-0.6-0.1c-1.8-0.3-3.6-0.3-5.4-0.1c1.2-0.3,2.4-0.6,3.7-0.8
		c0.9,0.2,1.8,0.5,2.7,0.8L82.6,92.5z M86.1,91.1c-0.2-0.1-0.4-0.2-0.7-0.3c0.6-0.1,1.3-0.1,1.9-0.1C86.9,90.8,86.5,91,86.1,91.1z
		 M150.5,113.4c-0.6-0.9-0.8-1.8-0.9-2.9c0.8-1,1.1-2.1,0.9-3.4c0-0.1,0-0.2,0-0.3l0.1,0C153.2,108.1,153.2,111.7,150.5,113.4z
		 M148.6,110.7c0.1,1.3,0.5,2.4,1.3,3.5c0,0.2,0,0.4-0.1,0.6c-0.1,0.5-0.4,1-0.9,1.5c-0.1-0.1-0.1-0.2-0.2-0.3
		C147.7,114.3,147.5,112.5,148.6,110.7z M146.8,107.7c-1-1.6-0.5-2.9-0.2-3.5c0.4,0.1,0.8,0.1,1.1,0.1c0.2,1,0.8,2,1.7,2.5
		c0.2,1,0.1,1.8-0.4,2.7l-0.1,0.1C148.3,109.3,147.3,108.5,146.8,107.7z M147.7,99.8c0-0.1,0.1-0.2,0.1-0.3c2.4,1,4.2,4.8,2.1,6.4
		c-0.6-0.5-1-1-1.2-1.9c0.8-1-0.2-2.9-1.2-3.8C147.6,100.1,147.7,99.9,147.7,99.8z M147.9,103.4c-2.8-0.1-5.8-1.1-6.4-3.9
		c0-0.2-0.1-0.3-0.1-0.4c0.3,0,0.6,0,0.9-0.1c0.4-0.1,0.7-0.1,1-0.2c0.8,0.9,2.2,2.2,3.4,2.1C147.3,101.3,148.2,102.7,147.9,103.4z
		 M135,90.8c-0.2-0.4-0.3-0.8-0.4-1.1h2.7c1.6,0.4,2.7,1.1,3.5,2.5c0.6,1.1,1.1,2.2,1.4,3.4c0.2,0.8,0.5,1.8,0.7,2.4
		c-0.2,0-0.4,0.1-0.6,0.1c-4.1,0.6-6.7-2.1-7.9-5.5c-0.4-1-0.6-2-0.7-2.9v0h0.4c0.2,0.6,0.3,1.1,0.6,1.8c1.1,2.6,3,4.6,5.6,5
		C137.7,95.4,136,93.3,135,90.8z M135.8,88.1c0-0.4,0.3-0.7,0.7-0.7c0.4,0,0.7,0.3,0.7,0.7c0,0.4-0.3,0.7-0.7,0.7
		C136.1,88.8,135.8,88.5,135.8,88.1z M146,95.5c0.5,0.8,1.2,3.4,0.6,4.3l-0.1,0.1c-0.9-0.1-2.2-1.4-2.6-2c-0.6-1.7-0.9-3.5-1.7-5.2
		C143.5,92.8,145,93.8,146,95.5z M140.1,82.1c2.6-0.3,5.3-0.8,7-2c2.2-1.5,2.6-3.8,0.9-6.4c-4.9-7.2-5.1-13-3.8-17.3
		c-0.6,5.6,0.9,12.7,8,19.8c6.8,6.8-9.5,9.6-14.7,10.3c-1.2-1.7-2.7-3.1-4.5-4.1C135.1,82.4,137.7,82.3,140.1,82.1z M132.7,87.5
		c0.4,0,0.7,0.3,0.7,0.7c0,0.4-0.3,0.7-0.7,0.7c-0.4,0-0.7-0.3-0.7-0.7C132,87.8,132.3,87.5,132.7,87.5z M128.8,87.5
		c0.4,0,0.7,0.3,0.7,0.7c0,0.4-0.3,0.7-0.7,0.7c-0.4,0-0.7-0.3-0.7-0.7C128.1,87.8,128.4,87.5,128.8,87.5z M125,81.7
		c0.4,0,0.7,0.3,0.7,0.7c0,0.4-0.3,0.7-0.7,0.7c-0.4,0-0.7-0.3-0.7-0.7C124.3,82,124.6,81.7,125,81.7z M125,84.6
		c0.4,0,0.7,0.3,0.7,0.7c0,0.4-0.3,0.7-0.7,0.7c-0.4,0-0.7-0.3-0.7-0.7C124.3,84.9,124.6,84.6,125,84.6z M125,87.5
		c0.4,0,0.7,0.3,0.7,0.7c0,0.4-0.3,0.7-0.7,0.7c-0.4,0-0.7-0.3-0.7-0.7C124.3,87.8,124.6,87.5,125,87.5z M125,90.4
		c0.4,0,0.7,0.3,0.7,0.7s-0.3,0.7-0.7,0.7c-0.4,0-0.7-0.3-0.7-0.7C124.3,90.7,124.6,90.4,125,90.4z M125,93.3c0.4,0,0.7,0.3,0.7,0.7
		c0,0.4-0.3,0.7-0.7,0.7c-0.4,0-0.7-0.3-0.7-0.7C124.3,93.7,124.6,93.3,125,93.3z M125,95.8c1,0,1.7-0.8,1.7-1.9v-4.3h5.5
		c0.1,0.3,0.1,0.7,0.2,1.2c0.8,3.7,3.1,7.3,6.7,8.2c0,0.2,0,0.3,0.1,0.4c0,0,0,0.1,0,0.1c-2.9,0.9-5.1,2.5-5.9,4.5
		c0.9-1,2.2-1.9,3.7-2.5c0,3.1,0.1,12.5,0.1,12.5l-0.8,0.6c0-0.4,0-0.8,0-1.2c0-0.7,0.5-6.4-2.9-8.5c-2.9-1.7-6-1.1-8.4-0.5
		c-2.3-0.6-5.5-1.2-8.4,0.5c-3.5,2.2-2.9,7.8-2.9,8.5c0,0.4,0,0.8,0,1.2l-0.8-0.6c0,0,0.1-9.4,0.1-12.5c1.5,0.6,2.8,1.5,3.7,2.5
		c-0.9-2-3.1-3.6-5.9-4.5c0,0,0-0.1,0-0.1c0-0.2,0-0.3,0.1-0.5c3.5-1,5.7-4.6,6.5-8.2c0.1-0.5,0.2-0.9,0.2-1.2v0h5.7v4.3
		C123.3,94.9,124,95.8,125,95.8z M115.3,89.6c-0.1,0.4-0.3,0.8-0.4,1.2c-1.1,2.5-2.8,4.7-5.1,5.6c2.6-0.4,4.5-2.4,5.6-5
		c0.3-0.6,0.5-1.2,0.6-1.8h0.4c-0.2,0.9-0.4,1.9-0.7,2.9c-1.2,3.3-3.8,6.1-7.9,5.5c-0.3,0-0.5-0.1-0.6-0.1c0.2-0.6,0.5-1.6,0.7-2.4
		c0.3-1.2,0.8-2.3,1.4-3.4c0.9-1.3,1.9-2,3.5-2.5C112.7,89.6,115.3,89.6,115.3,89.6z M112.8,88.4c0-0.4,0.3-0.7,0.7-0.7
		c0.4,0,0.7,0.3,0.7,0.7c0,0.4-0.3,0.7-0.7,0.7C113.1,89.1,112.8,88.8,112.8,88.4z M121.1,87.6c0.4,0,0.7,0.3,0.7,0.7
		s-0.3,0.7-0.7,0.7c-0.4,0-0.7-0.3-0.7-0.7C120.5,87.9,120.8,87.6,121.1,87.6z M118,88.3c0,0.4-0.3,0.7-0.7,0.7
		c-0.4,0-0.7-0.3-0.7-0.7c0-0.4,0.3-0.7,0.7-0.7C117.7,87.6,118,87.9,118,88.3z M97.8,76.2c7.1-7.1,8.6-14.2,8-19.8
		c1.3,4.3,1.1,10.1-3.8,17.3c-1.8,2.6-1.3,5,0.9,6.4c1.7,1.2,4.5,1.7,7,2c2.4,0.2,5,0.3,7.1,0.2c-1.7,1.1-3.3,2.5-4.5,4.1
		C107.2,85.8,91,83,97.8,76.2z M103.8,95.5c1-1.7,2.5-2.7,3.8-2.9c-0.7,1.7-1.1,3.5-1.7,5.2c-0.4,0.6-1.7,1.9-2.6,2l-0.1-0.1
		C102.6,98.9,103.4,96.3,103.8,95.5z M103.2,100.8c1.1,0.1,2.6-1.2,3.3-2.1c0.2,0.1,0.6,0.2,1,0.2c0.3,0,0.6,0.1,0.9,0.1
		c0,0.1,0,0.3-0.1,0.5c-0.6,2.8-3.6,3.8-6.4,3.9C101.6,102.6,102.5,101.3,103.2,100.8z M100.9,109.6l-0.1-0.1
		c-0.5-0.9-0.6-1.7-0.4-2.7c0.8-0.5,1.5-1.5,1.7-2.5c0.3,0,0.6,0,1.1-0.1c0.3,0.6,0.9,1.8-0.2,3.5
		C102.5,108.5,101.5,109.2,100.9,109.6z M101.1,116.1c-0.1,0.1-0.1,0.2-0.2,0.3c-0.4-0.5-0.7-1-0.9-1.5c-0.1-0.2-0.1-0.4-0.1-0.6
		c0.8-1.1,1.2-2.2,1.3-3.5C102.4,112.5,102.1,114.3,101.1,116.1z M102,99.5c0,0.1,0,0.2,0.1,0.3c0,0.2,0.1,0.3,0.2,0.5
		c-1.1,0.9-2,2.8-1.2,3.8c-0.1,0.9-0.6,1.4-1.2,1.9C97.9,104.3,99.7,100.4,102,99.5z M99.3,106.7L99.3,106.7c0,0.1,0,0.2,0,0.3
		c-0.2,1.4,0.2,2.4,0.9,3.4c-0.1,1.1-0.3,2-0.9,2.9C96.7,111.7,96.7,108.1,99.3,106.7z M100.5,135.9c-2.3-4.2,0.5-8.2,0.5-8.2
		s-2.7,2.9-2.7,6.2c0,0.7,0.1,1.4,0.2,2c0.2,0.9,0.4,1.7,0.7,2.5c-0.9-0.8-1.5-1.7-2.1-2.5l0,0c-4-6.2,1-11.7,2.3-13.5
		c0.1-0.2,0.3-0.4,0.4-0.5c-0.1,1.8-1.5,3.5-1.5,3.5s3.7-2.9,2.2-5c-0.3-0.4-1-1.4-1.6-2.2c-0.7-1.1-1.3-2.4-0.7-4.7
		c0.3,0.2,0.6,0.4,0.9,0.6c0,0.6,0.2,1.8,2,3.5c2.3,2.2,3.4,3.6,3.8,4.7c1.2,3.5-3.4,5.6-3.7,9.8c-0.1,1.2,0.2,2.5,0.7,3.7l0,0
		c0.5,1.2,1.1,2.3,1.5,3.1c-0.1,0-0.1-0.1-0.2-0.1C101.9,138,101.1,137,100.5,135.9L100.5,135.9z M99.9,181.7
		c2.2,1.7,5.1,2.1,7.7,1.2c-0.3,1.1-0.4,2.3-0.2,3.5c-2.5,0-5.4-1-7.4-2.9C99.9,182.9,99.9,182.3,99.9,181.7z M103.2,191.4
		c-1.4-1.7-2.3-3.5-2.8-5.3c2.4,1.7,5,2.1,7.2,1.9c0.1,0.3,0.2,0.6,0.3,1C106.2,190.5,104.3,191.2,103.2,191.4z M110.6,193.3
		c-0.5,0.6-2.3,1.3-4.5,1c-0.6-0.4-1.1-0.9-1.5-1.3c0.2,0,0.3-0.1,0.5-0.2c1.7-0.8,2.5-1.4,3.5-2.3
		C109.1,191.4,109.8,192.4,110.6,193.3z M111.3,153.3h-8.3c-0.2-2.8-0.6-5.8-1.5-8.9h9.7C111.3,144.5,111.3,153.3,111.3,153.3z
		 M124.1,153.3h-10v-8.9h10 M118.2,118l0.1-0.2c1.2-2.1,1.6-5,1.6-7.2c0-1.6,1.2-1.5,1.5-1.5h7.1c0.4,0,1.5-0.1,1.5,1.5
		c0,2.2,0.4,5.1,1.6,7.2l0.1,0.2l-2.1,1.6h-9.3L118.2,118z M125.8,144.5h10v8.9h-10 M135.9,119.9c-3.4-1.7-3.5-6.5-3.5-6.5v0.1
		c0,1.9,0.2,3.4,0.5,4.5c-0.1-0.2-0.3-0.4-0.4-0.6c-1.1-1.9-1.6-4.6-1.6-6.7c0-1.9-0.5-2.4-2.2-2.4h-7.3c-1.8,0-2.2,0.6-2.2,2.4
		c0,2.1-0.5,4.8-1.6,6.7c-0.1,0.2-0.2,0.4-0.4,0.6c0.3-1.1,0.5-2.5,0.5-4.5v-0.1c0,0-0.1,4.8-3.5,6.5c0,0-1,0.5-2.1,0.7
		c1-0.8,1.7-1.7,2.1-2.7c0.3-0.8,0.8-2.4,0.8-5.2c0-1.9,1.4-4.4,1.4-4.4s-1.1,1.2-1.6,2.6c0-1.9,0.4-3.7,2.4-5
		c2-1.2,3.8-1.3,5.1-1.1c0.7,0.1,2.3,0.7,2.8,0.8c0.4,0,2.1-0.7,2.8-0.8c1.3-0.2,3.1-0.1,5.1,1.1c2,1.3,2.4,3.1,2.4,5
		c-0.6-1.4-1.6-2.6-1.6-2.6s1.4,2.5,1.4,4.4c0,2.8,0.5,4.4,0.8,5.2c0.4,1,1,2,2.1,2.7C136.8,120.4,135.9,119.9,135.9,119.9z
		 M143.9,194.3c-2.2,0.3-4-0.4-4.5-1c0.8-0.9,1.5-1.9,2-2.8c1,0.9,1.8,1.5,3.5,2.3c0.2,0.1,0.3,0.1,0.5,0.2
		C144.9,193.4,144.4,193.9,143.9,194.3z M146.8,191.4c-1.1-0.3-3-1-4.7-2.5c0.1-0.3,0.2-0.6,0.3-1c2.2,0.3,4.8-0.1,7.2-1.9
		C149.1,188,148.2,189.7,146.8,191.4z M150.2,181.7c0,0.6,0,1.2-0.1,1.8c-2,1.9-4.9,3-7.4,2.9c0.1-1.2,0-2.4-0.2-3.5
		C145,183.8,148,183.5,150.2,181.7z M146.9,153.3h-8.3v-8.9h9.7C147.6,147.6,147.1,150.5,146.9,153.3z M152.7,135.9L152.7,135.9
		c-0.5,0.8-1.2,1.7-2.1,2.5c0.3-0.8,0.6-1.6,0.7-2.5v0c0.1-0.6,0.2-1.3,0.2-2c0-3.3-2.7-6.2-2.7-6.2s2.8,3.9,0.5,8.2l0,0
		c-0.6,1-1.4,2-2.6,3c-0.1,0-0.1,0.1-0.2,0.1c0.5-0.8,1.1-1.9,1.6-3.1v0c0.5-1.2,0.8-2.5,0.7-3.7c-0.3-4.2-4.9-6.3-3.7-9.8
		c0.4-1.1,1.5-2.5,3.8-4.7c1.8-1.7,2-2.9,2-3.5c0.3-0.2,0.6-0.4,0.9-0.6c0.5,2.3-0.1,3.6-0.8,4.7c-0.6,0.9-1.3,1.8-1.6,2.2
		c-1.5,2,2.2,5,2.2,5s-1.4-1.6-1.5-3.5c0.1,0.2,0.2,0.4,0.3,0.5C151.7,124.3,156.7,129.7,152.7,135.9z M163.9,91.1
		c-0.4-0.1-0.8-0.3-1.2-0.4c0.6,0,1.3,0.1,1.9,0.1C164.4,90.9,164.1,91,163.9,91.1z M182,96c-1,0-2.1,0.1-3.1,0.3l-0.1,0
		c-1.6-0.9-3.5-1.5-5.6-1.9C176.4,94.4,179.5,95,182,96z M168,92.4c-0.2,0-0.4,0.1-0.6,0.1l-0.3-0.1c0.9-0.3,1.8-0.6,2.7-0.8
		c1.3,0.2,2.5,0.5,3.7,0.8C171.6,92.1,169.8,92.1,168,92.4z M171.9,135.9c-0.1,1.1-0.3,2.1-0.6,3c-0.1-1-0.3-1.9-0.6-2.9
		c0-0.1,0-0.1,0-0.2h0c0.4-1.5,0.2-3.4-0.4-5.5c0.5-0.2,1.1-0.3,1.7-0.5C172.2,132.1,172.1,134.1,171.9,135.9L171.9,135.9z
		 M177.3,173.1c0.9,4.7-2.7,7.1-5.5,8c-3.4,1.1-7.6,0.3-10.1-1.9c-2.3,0.7-4.5,0.6-5.6-0.4c-1.5-1.3-0.7-3.6,1.9-5.5
		c-0.1-0.1-0.2-0.2-0.3-0.3c-0.9-1.2,0.3-2.8,2.5-3.6c1.6-0.5,3.4-0.5,4.6,0c0.8,0,1.7-0.9,2.6-2.4c0.7,2.1,4,3.7,7.2,4.2
		c1.7,0.3,3.1,0.5,4.3,0.2C178.3,172.2,177.7,172.7,177.3,173.1z M173.8,169.7c-1.2-0.3-2.4-0.8-3.3-1.3c1.5-3.5,2.5-8.1,3.1-12.9
		l0.1-0.5c1.7,1,3.7,1.8,6,2.2c0.9,0.2,1.7,0.3,2.4,0.3C179.4,162.6,176,167.1,173.8,169.7z M188.1,135.9c-0.4,2.4-1.2,4.8-2.3,6.8
		c2.1-1.6,3.7-3.8,4.9-6.2c0.2,0.8,0.5,1.5,0.7,2.3c1.6,4.7,0.5,10.2-1.6,15.4c-2,1.3-5.4,2.5-10.1,1.6c-3.9-0.8-6.9-2.6-8.3-4.5
		c0.4-4.1,0.4-8.4-0.1-12.3c0.8-0.8,1.4-1.9,1.9-3.2h0c0.8-1.9,1.3-4.3,1.4-6.8l0.2-0.1c0.2,2.4,0,4.7-0.3,6.9l0,0
		c-0.4,2.2-1,4.2-1.9,5.7c1.5-1,2.8-3.1,3.6-5.7l0,0c0.6-2.2,0.9-4.7,0.7-7.1c0-0.2,0-0.3,0-0.5c1,2.5,1.4,5.1,1.3,7.7h0
		c-0.1,1.3-0.3,2.6-0.6,3.8c1-1.2,1.8-2.5,2.4-3.8h0c1.3-2.7,1.9-5.6,1.7-8.4c1,2.7,1.4,5.6,1.3,8.4l0,0c-0.1,2-0.5,4-1.2,5.8
		c1.7-1.7,3-3.7,3.9-5.8h0c1.5-3.5,1.9-7.2,1.1-10.7c0.3-0.3,0.5-0.7,0.6-1.1C188.5,128,188.7,132.1,188.1,135.9L188.1,135.9z
		 M194.6,112.5c1.1,0.7,2.1,1.5,3,2.4c-0.8-0.3-1.7-0.5-2.6-0.6C195,113.7,194.8,113.1,194.6,112.5z"/>
	<path fill="#379F83" d="M121.5,96c-1.8-0.6-1-0.4-3-1c-2.2-0.8-3.7,2.4-3.7,2.4s0.5-0.7,1.4-1c1.4-0.4,1.8-0.1,3.4,0.4
		c-0.2,0-0.5,0-0.8,0.1c-1.7,0.3-2,0.8-2,0.8l5.1,0.1c-0.1-0.1-0.2-0.3-0.6-0.5c1.8,0.1,2.5-1.3,2.5-1.3S122.9,96.4,121.5,96z"/>
	<path fill="#379F83" d="M128.7,97.2c-0.4,0.2-0.5,0.5-0.6,0.5l5.1-0.1c0,0-0.3-0.5-2-0.8c-0.3,0-0.6-0.1-0.8-0.1
		c1.6-0.5,2-0.9,3.4-0.4c0.9,0.3,1.4,1,1.4,1s-1.5-3.2-3.7-2.4c-2,0.7-1.2,0.5-3,1c-1.4,0.4-2.3-0.1-2.3-0.1S127,97.3,128.7,97.2z"
		/>
</g>
</svg>
